<?xml version="1.0" encoding="iso-8859-1"?>
<!-- Generator: Adobe Illustrator 16.0.0, SVG Export Plug-In . SVG Version: 6.00 Build 0)  -->
<!DOCTYPE svg PUBLIC "-//W3C//DTD SVG 1.1//EN" "http://www.w3.org/Graphics/SVG/1.1/DTD/svg11.dtd">
<svg version="1.1" id="Capa_1" xmlns="http://www.w3.org/2000/svg" xmlns:xlink="http://www.w3.org/1999/xlink" x="0px" y="0px"
	 width="556.669px" height="556.668px" viewBox="0 0 556.669 556.668" style="enable-background:new 0 0 556.669 556.668;"
	 xml:space="preserve">
<g>
	<g>
		<path d="M545.783,241.471l-45.267-60.229l-13.474-74.125c-4.179-23.001-22.54-40.669-45.697-43.954L366.75,52.583L304.814,9.699
			C289.254-1.077,269.614-2.98,252.27,4.601c-3.834,1.678-7.478,3.803-10.843,6.333l-60.225,45.262l-74.127,13.474
			c-4.138,0.75-8.177,1.988-12.016,3.664c-17.08,7.464-29.316,23.573-31.936,42.031l-10.579,74.588L9.654,251.9
			c-13.311,19.221-12.816,44.697,1.23,63.391l45.267,60.217l13.468,74.124c4.184,23.012,22.54,40.669,45.699,43.963l74.596,10.584
			l61.93,42.885c15.33,10.615,35.463,12.572,52.545,5.096c3.843-1.678,7.498-3.812,10.849-6.328l60.231-45.267l74.13-13.474
			c4.133-0.746,8.172-1.979,12.014-3.65c17.082-7.467,29.313-23.571,31.934-42.036l10.578-74.596l42.891-61.941
			C560.329,285.635,559.826,260.157,545.783,241.471z M278.331,476.403c-109.22,0-198.071-88.856-198.071-198.073
			c0-109.22,88.852-198.074,198.071-198.074S476.402,169.11,476.402,278.33C476.402,387.546,387.551,476.403,278.331,476.403z"/>
		<path d="M239.539,258.523c4.099-2.504,6.151-6.952,6.151-13.342c0-7.068-2.71-11.749-8.15-14.001
			c-4.673-1.564-10.659-2.376-17.911-2.376h-28.246v33.479H223.5C230.084,262.282,235.43,261.032,239.539,258.523z"/>
		<path d="M239.13,289.98c-3.594-1.657-8.673-2.506-15.18-2.563h-32.573v40.441h32.073c6.586,0,11.687-0.859,15.366-2.662
			c6.638-3.313,9.965-9.615,9.965-18.951C248.782,298.358,245.562,292.911,239.13,289.98z"/>
		<path d="M278.331,98.936c-98.915,0-179.396,80.476-179.396,179.394c0,98.912,80.476,179.391,179.396,179.391
			c98.92,0,179.394-80.479,179.394-179.391C457.725,179.412,377.246,98.936,278.331,98.936z M315.533,208.75h61.117v15.18h-61.117
			V208.75z M274.015,332.626c-2.874,4.729-6.447,8.715-10.732,11.92c-4.836,3.708-10.558,6.256-17.126,7.628
			c-6.597,1.356-13.74,2.04-21.432,2.04h-68.354V202.446h73.294c18.48,0.305,31.576,5.652,39.312,16.171
			c4.64,6.441,6.941,14.178,6.941,23.167c0,9.284-2.328,16.702-7.009,22.354c-2.604,3.161-6.459,6.027-11.555,8.627
			c7.721,2.827,13.58,7.277,17.5,13.414c3.943,6.1,5.911,13.525,5.911,22.225C280.76,317.414,278.538,325.492,274.015,332.626z
			 M400.258,303.137h-79.153c0.44,10.937,4.216,18.569,11.366,22.95c4.309,2.733,9.543,4.069,15.664,4.069
			c6.457,0,11.718-1.626,15.783-4.991c2.205-1.771,4.152-4.288,5.835-7.441h29.019c-0.762,6.441-4.257,12.986-10.521,19.646
			c-9.735,10.574-23.375,15.876-40.893,15.876c-14.473,0-27.227-4.489-38.297-13.391c-11.04-8.942-16.58-23.436-16.58-43.537
			c0-18.874,4.981-33.298,14.965-43.346c10.024-10.063,22.949-15.076,38.888-15.076c9.45,0,17.963,1.688,25.564,5.085
			c7.575,3.399,13.83,8.746,18.771,16.099c4.458,6.475,7.337,13.963,8.668,22.486C400.061,286.51,400.393,293.718,400.258,303.137z"
			/>
		<path d="M346.322,261.316c-7.307,0-12.945,2.107-16.953,6.232c-4.039,4.124-6.545,9.734-7.581,16.829h48.975
			c-0.528-7.55-3.06-13.272-7.596-17.168C358.667,263.284,353.033,261.316,346.322,261.316z"/>
	</g>
</g>
<g>
</g>
<g>
</g>
<g>
</g>
<g>
</g>
<g>
</g>
<g>
</g>
<g>
</g>
<g>
</g>
<g>
</g>
<g>
</g>
<g>
</g>
<g>
</g>
<g>
</g>
<g>
</g>
<g>
</g>
</svg>
