<?xml version="1.0" encoding="iso-8859-1"?>
<!-- Generator: Adobe Illustrator 16.0.0, SVG Export Plug-In . SVG Version: 6.00 Build 0)  -->
<!DOCTYPE svg PUBLIC "-//W3C//DTD SVG 1.1//EN" "http://www.w3.org/Graphics/SVG/1.1/DTD/svg11.dtd">
<svg fill="#ffffff" version="1.1" id="Capa_1" xmlns="http://www.w3.org/2000/svg" xmlns:xlink="http://www.w3.org/1999/xlink" x="0px" y="0px"
	 width="539.068px" height="539.068px" viewBox="0 0 539.068 539.068" style="enable-background:new 0 0 539.068 539.068;"
	 xml:space="preserve">
<g>
	<g>
		<path d="M96.135,173.909c-5.071,0-9.18,4.11-9.18,9.18v346.799c0,5.07,4.109,9.18,9.18,9.18h346.799c5.07,0,9.18-4.109,9.18-9.18
			V183.089c0-5.07-4.109-9.18-9.18-9.18h-37.229V53.55c0-29.526-24.024-53.55-53.55-53.55h-165.24
			c-29.526,0-53.55,24.024-53.55,53.55v56.61c0,12.675,10.275,22.95,22.95,22.95c12.675,0,22.95-10.275,22.95-22.95V53.55
			c0-4.217,3.433-7.65,7.65-7.65h165.24c4.217,0,7.649,3.433,7.649,7.65v120.359H96.135z M291.975,376.16v54.789
			c0,12.393-10.047,22.439-22.439,22.439c-12.393,0-22.439-10.047-22.439-22.439V376.16c-19.226-8.599-32.641-27.853-32.641-50.27
			c0-11.111,3.317-21.436,8.978-30.089c9.835-15.037,26.793-24.991,46.102-24.991s36.268,9.954,46.102,24.991
			c5.661,8.653,8.979,18.978,8.979,30.089C324.616,348.308,311.201,367.562,291.975,376.16z"/>
	</g>
</g>
<g>
</g>
<g>
</g>
<g>
</g>
<g>
</g>
<g>
</g>
<g>
</g>
<g>
</g>
<g>
</g>
<g>
</g>
<g>
</g>
<g>
</g>
<g>
</g>
<g>
</g>
<g>
</g>
<g>
</g>
</svg>
